<?xml version="1.0" encoding="utf-8"?>
<!-- Generator: Adobe Illustrator 26.1.0, SVG Export Plug-In . SVG Version: 6.00 Build 0)  -->
<svg version="1.1" id="Livello_1" xmlns="http://www.w3.org/2000/svg" xmlns:xlink="http://www.w3.org/1999/xlink" x="0px" y="0px"
	 viewBox="0 0 228.7 39.1" style="enable-background:new 0 0 228.7 39.1;" xml:space="preserve">
<style type="text/css">
	.st0{fill:none;}
	.st1{fill:#FFFFFF;}
</style>
<rect x="65.4" y="27" class="st0" width="37.3" height="0.5"/>
<g>
	<path class="st1" d="M33.4,35.5c-2,0.9-4.2,1.7-6.5,2.4c-2.4,0.7-4.6,1-6.8,1c-2.8,0-5.4-0.4-7.8-1.2c-2.4-0.8-4.4-2-6-3.5
		c-1.7-1.6-3-3.6-3.9-5.9C1.5,25.9,1,23.2,1,20C1,14.2,2.7,9.6,6.1,6.2c3.4-3.4,8.1-5,14-5c2.1,0,4.2,0.2,6.3,0.7
		c2.2,0.5,4.5,1.3,7,2.5v5.7H33c-0.5-0.4-1.2-0.9-2.2-1.5c-1-0.6-1.9-1.2-2.8-1.6c-1.1-0.5-2.4-0.9-3.8-1.3c-1.4-0.3-3-0.5-4.8-0.5
		c-4.1,0-7.3,1.3-9.7,3.9s-3.6,6.1-3.6,10.6c0,4.7,1.2,8.4,3.7,11c2.5,2.6,5.8,3.9,10.1,3.9c1.6,0,3.1-0.2,4.7-0.5
		c1.6-0.3,2.9-0.7,4.1-1.2v-8.9h-9.7v-4.2h14.5V35.5z"/>
	<path class="st1" d="M44,6.4h-5.2V1.6H44V6.4z M43.7,38.2h-4.6V10.9h4.6V38.2z"/>
	<path class="st1" d="M71.4,38.2h-4.6v-2.9c-0.4,0.3-1,0.7-1.6,1.2c-0.7,0.5-1.4,0.9-2,1.2c-0.8,0.4-1.6,0.7-2.6,0.9
		c-1,0.3-2.2,0.4-3.5,0.4c-2.5,0-4.5-0.8-6.2-2.4s-2.6-3.7-2.6-6.2c0-2.1,0.4-3.7,1.3-5c0.9-1.3,2.2-2.3,3.8-3
		c1.7-0.7,3.7-1.2,6-1.5c2.3-0.3,4.8-0.5,7.5-0.6v-0.7c0-1-0.2-1.9-0.5-2.6s-0.9-1.2-1.6-1.6c-0.7-0.4-1.4-0.6-2.3-0.8
		c-0.9-0.1-1.9-0.2-2.9-0.2c-1.2,0-2.5,0.2-4,0.5c-1.5,0.3-3,0.8-4.6,1.4h-0.2v-4.7c0.9-0.2,2.2-0.5,3.9-0.8c1.7-0.3,3.4-0.4,5-0.4
		c1.9,0,3.6,0.2,5,0.5c1.4,0.3,2.7,0.9,3.7,1.6c1,0.7,1.8,1.7,2.3,2.9c0.5,1.2,0.8,2.7,0.8,4.4V38.2z M66.9,31.5v-7.6
		c-1.4,0.1-3,0.2-4.9,0.4c-1.9,0.2-3.4,0.4-4.5,0.7c-1.3,0.4-2.4,1-3.2,1.7C53.4,27.5,53,28.6,53,30c0,1.6,0.5,2.7,1.4,3.5
		c0.9,0.8,2.4,1.2,4.3,1.2c1.6,0,3.1-0.3,4.4-0.9C64.5,33.1,65.7,32.4,66.9,31.5z"/>
	<path class="st1" d="M100.6,38.2H96V22.7c0-1.3-0.1-2.4-0.2-3.5s-0.4-2-0.8-2.6c-0.4-0.7-1-1.2-1.8-1.5c-0.8-0.3-1.8-0.5-3-0.5
		c-1.3,0-2.6,0.3-3.9,0.9c-1.4,0.6-2.7,1.4-3.9,2.4v20.4h-4.6V10.9h4.6v3c1.4-1.2,2.9-2.1,4.4-2.8c1.5-0.7,3.1-1,4.7-1
		c2.9,0,5.2,0.9,6.7,2.7c1.5,1.8,2.3,4.3,2.3,7.7V38.2z"/>
	<path class="st1" d="M146.7,38.2h-4.6V22.7c0-1.2-0.1-2.3-0.2-3.4c-0.1-1.1-0.3-2-0.7-2.6c-0.4-0.7-0.9-1.2-1.6-1.6
		c-0.7-0.4-1.7-0.5-3-0.5c-1.3,0-2.6,0.3-3.9,1c-1.3,0.6-2.6,1.5-3.9,2.5c0,0.4,0.1,0.8,0.1,1.3c0,0.5,0,1,0,1.5v17.5h-4.6V22.7
		c0-1.2-0.1-2.3-0.2-3.4c-0.1-1.1-0.3-1.9-0.7-2.6c-0.4-0.7-0.9-1.2-1.6-1.6c-0.7-0.3-1.7-0.5-3-0.5c-1.3,0-2.5,0.3-3.8,0.9
		c-1.3,0.6-2.5,1.4-3.8,2.4v20.4h-4.6V10.9h4.6v3c1.4-1.2,2.9-2.1,4.3-2.8c1.4-0.7,2.9-1,4.6-1c1.9,0,3.4,0.4,4.7,1.2
		c1.3,0.8,2.3,1.9,2.9,3.2c1.9-1.6,3.5-2.7,5.1-3.4c1.5-0.7,3.2-1,4.9-1c3,0,5.2,0.9,6.6,2.7c1.4,1.8,2.1,4.4,2.1,7.6V38.2z"/>
	<path class="st1" d="M176.6,6.1h-18.4v10.3H174v4.3h-15.8v17.5h-4.8V1.8h23.2V6.1z"/>
	<path class="st1" d="M200.9,25h-20.1c0,1.7,0.3,3.1,0.8,4.4c0.5,1.2,1.2,2.3,2.1,3.1c0.8,0.8,1.9,1.4,3,1.8
		c1.2,0.4,2.4,0.6,3.8,0.6c1.9,0,3.7-0.4,5.6-1.1c1.9-0.7,3.2-1.5,4-2.2h0.2v5c-1.5,0.7-3.1,1.2-4.7,1.6s-3.3,0.7-5.1,0.7
		c-4.5,0-8.1-1.2-10.6-3.7c-2.5-2.4-3.8-5.9-3.8-10.4c0-4.5,1.2-8,3.7-10.6c2.4-2.6,5.6-3.9,9.6-3.9c3.7,0,6.5,1.1,8.5,3.2
		c2,2.1,3,5.2,3,9.2V25z M196.4,21.5c0-2.4-0.6-4.3-1.8-5.6c-1.2-1.3-3-2-5.5-2c-2.5,0-4.4,0.7-5.9,2.2c-1.5,1.4-2.3,3.2-2.5,5.4
		H196.4z"/>
	<path class="st1" d="M227.5,38.2h-4.6v-2.9c-1.3,1.1-2.7,2-4.1,2.7c-1.4,0.6-3,1-4.7,1c-3.3,0-5.8-1.3-7.8-3.8
		c-1.9-2.5-2.9-6-2.9-10.4c0-2.3,0.3-4.4,1-6.2c0.7-1.8,1.6-3.3,2.7-4.6c1.1-1.2,2.4-2.2,3.9-2.8c1.5-0.7,3-1,4.6-1
		c1.4,0,2.7,0.2,3.8,0.5c1.1,0.3,2.3,0.8,3.5,1.4V0.2h4.6V38.2z M222.9,31.5V15.8c-1.2-0.6-2.3-0.9-3.3-1.1c-1-0.2-2-0.3-3.2-0.3
		c-2.6,0-4.6,0.9-6,2.7c-1.4,1.8-2.1,4.3-2.1,7.6c0,3.2,0.6,5.7,1.7,7.4c1.1,1.7,2.9,2.5,5.3,2.5c1.3,0,2.6-0.3,4-0.9
		C220.5,33.1,221.7,32.4,222.9,31.5z"/>
</g>
</svg>
